<svg xmlns="http://www.w3.org/2000/svg" width="40" height="40" viewBox="0 0 40 40">
    <g fill="none" fill-rule="evenodd">
        <path d="M0 0H40V40H0z"/>
        <g fill-rule="nonzero" transform="translate(1.667 1.667)">
            <path fill="#078266" d="M35.83 8.323l-4.355-6.292C30.592.761 29.143.001 27.595 0H9.071C7.524.002 6.075.76 5.192 2.031L.836 8.323C.293 9.11.001 10.043 0 11v20.944c0 2.608 2.114 4.723 4.723 4.723h27.221c2.608 0 4.723-2.115 4.723-4.723V11c-.002-.956-.293-1.89-.836-2.677zm-8.235-4.656c.346 0 .67.17.866.454l2.728 3.946h-11v-4.4h7.406zM8.206 4.12c.196-.285.52-.455.865-.454H16.5v4.4h-11L8.206 4.12zM33 31.944c.002.28-.109.55-.307.749-.199.198-.468.309-.749.307H4.723c-.281.002-.55-.109-.75-.307-.198-.199-.308-.468-.306-.749V12.65c0-.506.41-.917.916-.917h27.5c.507 0 .917.41.917.917v19.294z"/>
            <rect width="14.667" height="3.667" x="11" y="15.4" fill="#FF8E69" rx="1.1"/>
        </g>
    </g>
</svg>
