<svg xmlns="http://www.w3.org/2000/svg" width="24" height="24" viewBox="0 0 24 24">
    <g fill="none" fill-rule="evenodd">
        <path d="M0 0H24V24H0z"/>
        <g fill-rule="nonzero">
            <path fill="#078266" d="M19.156 3.825h-7.315c-.612 0-1.107.476-1.107 1.063 0 .586.495 1.062 1.107 1.062h7.315c.186-.002.363.076.483.213.12.136.17.317.137.493l-1.678 7.722c-.052.287-.312.497-.616.497h-7.174c-.304 0-.563-.21-.615-.497L7.244.85C7.142.355 6.689-.001 6.164 0H1.105C.764 0 .442.152.232.411c-.21.26-.282.597-.197.915.138.483.602.813 1.124.799H5.26l2.267 12.614c.236 1.3 1.407 2.252 2.781 2.261h7.174c1.382-.001 2.562-.955 2.8-2.261l1.677-7.726c.141-.793-.09-1.605-.63-2.22-.54-.614-1.335-.968-2.173-.968z" transform="translate(1 1)"/>
            <path fill="#078266" d="M15.846 10C16.483 10 17 9.552 17 9s-.517-1-1.154-1h-3.692c-.412 0-.793.19-1 .5-.206.31-.206.69 0 1 .207.31.588.5 1 .5h3.692z" transform="translate(1 1)"/>
            <g fill="#FF8E69" transform="translate(1 1) translate(9 11)">
                <circle cx="1.843" cy="8.628" r="1.473"/>
                <circle cx="7.736" cy="8.628" r="1.473"/>
                <path d="M7.104 1.052C7.104.472 6.634 0 6.052 0H3.948c-.581 0-1.052.471-1.052 1.052 0 .581.47 1.052 1.052 1.052h2.104c.581 0 1.052-.47 1.052-1.052z"/>
            </g>
        </g>
    </g>
</svg>
