<svg xmlns="http://www.w3.org/2000/svg" width="32" height="32" viewBox="0 0 32 32">
    <g fill="none" fill-rule="evenodd">
        <circle cx="16" cy="16" r="16" fill="#FFF"/>
        <g>
            <path d="M0 0H24V24H0z" transform="translate(4 4)"/>
            <path fill="#078266" fill-rule="nonzero" d="M11.96 8.64c1.845-.01 3.349 1.475 3.36 3.32.01 1.845-1.475 3.349-3.32 3.36-.886.005-1.737-.341-2.368-.964-.63-.623-.987-1.47-.992-2.356-.011-1.845 1.475-3.349 3.32-3.36zm.02 8.49c2.835 0 5.134-2.295 5.14-5.13.005-2.835-2.285-5.139-5.12-5.15-1.37-.008-2.685.532-3.654 1.499-.97.967-1.511 2.282-1.506 3.651.006 2.835 2.305 5.13 5.14 5.13zm4.87-9.361c.45.185.965.083 1.309-.26.343-.344.445-.86.26-1.308-.186-.449-.624-.741-1.109-.741-.663 0-1.2.537-1.2 1.2 0 .485.292.923.74 1.109zM7.93 20.13c-.635-.011-1.264-.13-1.86-.35-.871-.33-1.56-1.019-1.89-1.89-.6-1.53-.4-8.77-.35-9.94-.034-1.103.356-2.176 1.09-3 1-1 2.3-1.49 11.09-1.09 1.103-.038 2.179.353 3 1.09 1 1 1.5 2.3 1.09 11.09-.01.635-.124 1.263-.34 1.86-.91 2.32-3 2.64-11.84 2.24M3.65 3.67C2.574 4.802 1.983 6.309 2 7.87c0 1-.31 8.66.47 10.67.514 1.344 1.576 2.406 2.92 2.92.777.294 1.6.453 2.43.47 8.9.4 12.21.18 13.6-3.39.285-.78.44-1.6.46-2.43.41-8.95-.06-10.89-1.62-12.44-1.2-1.23-2.65-2.07-12.41-1.62-1.559-.033-3.067.549-4.2 1.62z" transform="translate(4 4)"/>
        </g>
    </g>
</svg>
