<svg xmlns="http://www.w3.org/2000/svg" xmlns:xlink="http://www.w3.org/1999/xlink" width="146" height="48" viewBox="0 0 146 48">
    <defs>
        <path id="arl0g1bcoa" d="M0.593 0.296L0.889 0.296 0.889 0.593 0.593 0.593z"/>
        <path id="74ugfl4oyc" d="M0.418 0.141L17.444 0.141 17.444 17.243 0.418 17.243z"/>
        <path id="c8pc31gc5e" d="M0.121 0.467L29.284 0.467 29.284 29.63 0.121 29.63z"/>
    </defs>
    <g fill="none" fill-rule="evenodd">
        <g transform="translate(0 46.674)">
            <mask id="iuu0weqozb" fill="#fff">
                <use xlink:href="#arl0g1bcoa"/>
            </mask>
        </g>
        <path fill="#4AA48F" d="M50.901 16.4c-.028-1.145-.112-2.282-.258-3.409-.268-2.063-.71-3.884-1.188-5.41-3.136 2.114-7.08 5.536-9.229 10.347-.294.66-.525 1.279-.706 1.845.562.98 1.251 1.889 2.054 2.702l.583.59c1.942-2.547 4.732-4.97 8.744-6.666"/>
        <g transform="translate(48 .451)">
            <mask id="3zhuvtzekd" fill="#fff">
                <use xlink:href="#74ugfl4oyc"/>
            </mask>
            <path fill="#4AA48F" d="M16.85 16.772c.075.157.148.314.22.47 1.063-4.51-.136-9.463-3.616-12.986-.256-.26-.522-.509-.798-.747-.273-.236-.555-.461-.845-.676-.288-.21-.583-.41-.886-.6-.299-.186-.606-.361-.92-.524-.31-.162-.627-.31-.949-.449-.32-.136-.646-.261-.975-.374-.328-.111-.66-.21-.996-.297C6.75.502 6.413.429 6.073.366c-.34-.061-.68-.11-1.023-.147C4.707.183 4.364.16 4.02.15 3.675.137 3.33.138 2.986.152s-.687.04-1.03.08C1.616.273 1.275.324.936.39.762.422.589.459.418.498c.505.825 1.392 2.43 2.224 4.708 8.145 2.052 12.222 7.421 14.208 11.566" mask="url(#3zhuvtzekd)"/>
        </g>
        <path fill="#4AA48F" d="M50.893 18.3c-3.136 1.445-5.662 3.47-7.558 6.05 2.478 3.035 3.506 6.886 3.06 10.578 1.505-2.974 2.644-5.96 3.397-8.932.653-2.579 1.02-5.152 1.101-7.696M48.868 5.886c-.208-.546-.412-1.037-.602-1.464-.705-1.579-1.342-2.598-1.577-2.953-.246.092-.49.188-.733.294-.32.14-.637.294-.947.459-.312.167-.618.345-.917.536-.3.191-.595.395-.881.61-.29.218-.57.447-.842.687-.308.271-.6.561-.897.844-.077.072-.151.147-.225.222-.102.105-.203.213-.301.323-.122.137-.241.278-.357.42-.137.17-.27.342-.397.518-.144.2-.284.404-.416.611-.147.23-.287.465-.419.704-.143.26-.277.525-.4.795-.134.29-.257.584-.367.883-.117.318-.222.641-.312.968-.096.348-.176.7-.24 1.054-.069.376-.118.755-.15 1.136-.034.404-.047.81-.04 1.217.003.173.009.347.02.52.064 1.118.284 2.211.639 3.256.028-.067.056-.133.086-.2 1.332-3.03 4.196-7.456 10.275-11.44M52.624 18.586c-.1 2.571-.477 5.169-1.131 7.769-1.14 4.535-3.132 9.087-5.931 13.58l12.56-12.404c-.934-3.44-2.772-6.432-5.498-8.945M51.293 7.64c.432 1.478.812 3.16 1.06 5.028.158 1.202.251 2.415.283 3.634 3.76 3.051 5.803 6.57 6.87 9.86l1.825-1.801c1.244-1.228 2.202-2.64 2.883-4.148-.263-.737-.578-1.51-.958-2.296-2.496-5.173-6.518-8.626-11.963-10.278"/>
        <g transform="translate(14.222 17.637)">
            <mask id="b5251kat3f" fill="#fff">
                <use xlink:href="#c8pc31gc5e"/>
            </mask>
            <path fill="#FF8E69" d="M25.49 7.438L18.517.467.12 18.864l6.971 6.971c5.059 5.06 13.338 5.06 18.397 0 5.06-5.06 5.06-13.338 0-18.397" mask="url(#b5251kat3f)"/>
        </g>
        <path fill="#4AA48F" d="M22.784 8.147c-5.059-5.058-13.338-5.058-18.397 0-5.06 5.06-5.06 13.339 0 18.398l8.336 8.335L31.12 16.483l-8.336-8.336z"/>
        <path fill="#FFF" d="M10.06 28.032l-2.112-2.111c-1.864-1.865-3.023-4.178-3.479-6.601l7.152 7.15-1.562 1.562z"/>
        <g fill-rule="nonzero">
            <g fill="#FF8E69">
                <path d="M.23 9.699V.526C.23.46.263.395.33.362.395.296.46.263.493.263h1.644c.066 0 .131.033.197.066.066.066.066.098.066.197v3.485h3.945V.526c0-.066.033-.131.066-.197.066-.066.099-.066.197-.066h1.644c.066 0 .132.033.164.099.066.065.1.131.1.164v9.173c0 .065-.034.131-.1.164-.065.066-.131.099-.164.099H6.608c-.066 0-.131-.033-.197-.066-.066-.066-.066-.099-.066-.197v-3.65H2.4V9.7c0 .065-.033.131-.066.197-.066.066-.098.066-.197.066H.493c-.066 0-.131-.033-.164-.099C.263 9.83.23 9.764.23 9.699zM1.02 29.753v-9.172c0-.066.032-.132.065-.197.066-.066.099-.066.197-.066h3.222c.822 0 1.512.263 2.104.756.592.493.888 1.118.888 1.841 0 .493-.164.92-.493 1.282-.329.395-.69.69-1.118.888 1.25.526 1.841 1.282 1.841 2.268 0 .757-.296 1.414-.888 1.907-.591.493-1.315.756-2.137.756H1.282c-.066 0-.131-.032-.197-.065-.033-.066-.066-.132-.066-.198zm2.169-5.49h1.085c.263 0 .493-.099.69-.296.198-.197.296-.427.296-.69 0-.263-.098-.493-.296-.658-.197-.164-.427-.263-.69-.263H3.189v1.907zm0 3.78h1.25c.262 0 .493-.098.69-.295.197-.197.296-.427.296-.723 0-.263-.132-.493-.362-.69-.23-.198-.493-.297-.789-.297H3.156v2.006h.033zM13.742 9.699V.526c0-.066.033-.131.066-.197s.099-.066.197-.066h5.721c.066 0 .132.033.197.066.066.066.066.098.066.197v1.512c0 .066-.033.132-.066.198-.065.065-.098.065-.197.065h-3.847v1.71h3.157c.065 0 .131.033.197.066.066.065.066.098.066.197v1.512c0 .066-.033.132-.066.198-.033.065-.099.065-.197.065h-3.157v1.874h3.847c.066 0 .132.033.197.066.066.066.066.099.066.197V9.7c0 .065-.033.131-.066.197-.065.066-.098.066-.197.066h-5.72c-.066 0-.132-.033-.198-.066s-.066-.132-.066-.197zM13.742 29.753v-9.172c0-.066.033-.132.066-.197.033-.066.099-.066.197-.066h5.721c.066 0 .132.033.197.066.066.065.066.098.066.197v1.512c0 .066-.033.132-.066.197-.065.066-.098.066-.197.066h-3.847v1.71h3.157c.065 0 .131.033.197.066.066.065.066.098.066.197v1.512c0 .066-.033.132-.066.197-.033.066-.099.066-.197.066h-3.157v1.874h3.847c.066 0 .132.033.197.066.066.066.066.098.066.197v1.512c0 .066-.033.132-.066.198-.065.065-.098.065-.197.065h-5.72c-.066 0-.132-.032-.198-.065s-.066-.132-.066-.198zM24.427 9.962c-.098 0-.164-.033-.23-.099-.065-.066-.065-.164 0-.263l4.34-9.304c.033-.099.131-.164.23-.164h.132c.098 0 .197.065.23.164l4.34 9.304c.032.099.032.164 0 .263-.066.066-.132.099-.23.099h-1.546c-.197 0-.361-.132-.493-.362l-.493-1.085h-3.781l-.493 1.118c-.099.23-.263.329-.493.329h-1.513zm3.32-3.32h2.105L28.8 4.371l-1.052 2.27zM24.427 30.016c-.098 0-.164-.032-.23-.098-.065-.066-.065-.165 0-.263l4.34-9.304c.033-.099.131-.165.23-.165h.132c.098 0 .197.066.23.165l4.34 9.304c.032.098.032.164 0 .263-.033.098-.132.098-.23.098h-1.546c-.197 0-.361-.131-.493-.361l-.493-1.085h-3.781l-.493 1.118c-.099.23-.263.328-.493.328h-1.513zm3.32-3.32h2.105L28.8 24.427l-1.052 2.269zM37.907 9.699V.526c0-.066.033-.131.066-.197.032-.066.098-.066.197-.066h1.644c.065 0 .131.033.197.099.066.065.066.131.066.164v7.397h3.287c.066 0 .132.033.198.066.065.033.065.099.065.197V9.7c0 .065-.032.131-.065.197s-.099.066-.198.066H38.17c-.066 0-.132-.033-.197-.066-.066-.033-.066-.132-.066-.197zM36.822 26.301v-5.72c0-.066.033-.132.099-.165.065-.065.131-.098.164-.098h1.71c.065 0 .131.033.197.066.066.032.066.098.066.197v5.622c0 .493.164.887.493 1.25.328.328.723.492 1.216.492s.92-.164 1.25-.493c.328-.329.493-.756.493-1.25v-5.621c0-.066.032-.132.065-.197.066-.066.099-.066.198-.066h1.71c.065 0 .13.033.164.098.065.066.098.132.098.165v5.72c0 1.052-.394 1.973-1.15 2.73-.79.755-1.71 1.15-2.795 1.15s-2.005-.395-2.762-1.15c-.854-.79-1.216-1.678-1.216-2.73zM50.532 9.699V2.3h-1.973c-.066 0-.132-.033-.197-.065-.066-.066-.066-.099-.066-.198V.526c0-.066.033-.131.066-.197s.098-.066.197-.066h6.148c.066 0 .131.033.197.066.066.066.066.098.066.197v1.512c0 .066-.033.132-.066.198-.066.065-.099.065-.197.065h-1.973V9.7c0 .065-.033.131-.098.164-.066.066-.132.099-.165.099h-1.676c-.066 0-.132-.033-.165-.099-.066-.033-.098-.099-.098-.164zM50.532 29.753v-7.397h-1.973c-.066 0-.132-.033-.197-.066-.066-.065-.066-.098-.066-.197v-1.512c0-.066.033-.132.066-.197.033-.066.098-.066.197-.066h6.148c.066 0 .131.033.197.066.066.065.066.098.066.197v1.512c0 .066-.033.132-.066.197-.066.066-.099.066-.197.066h-1.973v7.397c0 .066-.033.132-.098.165-.066.066-.132.098-.165.098h-1.676c-.066 0-.132-.032-.165-.098-.066-.033-.098-.099-.098-.165zM59.408 9.699V.526c0-.066.033-.131.099-.164.066-.066.131-.099.164-.099h1.644c.066 0 .132.033.197.066.066.033.066.098.066.197v3.485h3.945V.526c0-.066.033-.131.066-.197.066-.066.099-.066.197-.066h1.644c.066 0 .132.033.165.099.065.065.098.131.098.164v9.173c0 .065-.033.131-.098.164-.066.066-.132.099-.165.099h-1.644c-.065 0-.131-.033-.197-.066-.066-.066-.066-.099-.066-.197v-3.65h-3.945V9.7c0 .065-.033.131-.066.197s-.098.066-.197.066h-1.644c-.066 0-.131-.033-.164-.099-.066-.033-.099-.099-.099-.164zM62.466 29.753v-4.405l-3.058-4.636c-.066-.098-.066-.197 0-.263.033-.098.132-.131.23-.131h1.809c.098 0 .164.033.23.131l1.94 2.828 1.94-2.828c.065-.098.13-.131.23-.131h1.808c.098 0 .197.033.23.131.033.099.033.165 0 .263l-3.09 4.603v4.406c0 .065-.034.131-.1.164-.065.066-.13.099-.164.099h-1.644c-.065 0-.131-.033-.197-.066s-.164-.099-.164-.165z" transform="translate(78 9)"/>
            </g>
            <g fill="#078266">
                <path d="M.296 4.932c-.033 0-.099-.033-.099-.066s-.033-.066 0-.132L2.236.362c.032-.033.065-.066.098-.066H2.4c.066 0 .099.033.099.066l2.038 4.372c.033.033.033.066 0 .132s-.066.066-.099.066h-.723c-.099 0-.164-.066-.23-.165l-.23-.526H1.479l-.23.526c-.033.099-.131.165-.23.165H.296zm1.578-1.546h.986l-.493-1.085-.493 1.085zM6.51 4.8V.427c0-.032 0-.065.032-.065.033-.033.066-.033.1-.033h.163l2.598 2.498V.526c0-.033 0-.066.033-.099.032-.032.065-.032.098-.032h.79c.032 0 .065 0 .098.032.033.033.033.066.033.099v4.373c0 .033 0 .065-.033.065-.033.033-.066.033-.099.033h-.131c-.033 0-.066 0-.099-.033L7.53 2.4v2.433c0 .033 0 .066-.033.099-.033.032-.066.032-.099.032h-.789c-.033 0-.066 0-.098-.032-.033-.033 0-.1 0-.132zM12.986 4.8V.493c0-.033 0-.066.033-.098.033-.033.066-.033.066-.033h1.578c.625 0 1.15.23 1.611.657.46.428.658.986.658 1.611s-.23 1.15-.658 1.611c-.46.46-.986.658-1.611.658h-1.578c-.033 0-.066 0-.066-.033s-.033-.033-.033-.066zm1.02-.822h.624c.362 0 .658-.131.92-.394.23-.263.362-.56.362-.954 0-.362-.131-.69-.361-.92-.23-.263-.56-.395-.92-.395h-.626v2.663z" transform="translate(78 9) translate(25.315 12.493)"/>
            </g>
            <g fill="#078266">
                <path d="M.164 0H17.161V1.348H.164zM36.395 0H53.392V1.348H36.395z" transform="translate(78 9) translate(7.233 14.466)"/>
            </g>
        </g>
    </g>
</svg>
