<svg xmlns="http://www.w3.org/2000/svg" xmlns:xlink="http://www.w3.org/1999/xlink" width="48" height="34" viewBox="0 0 48 34">
    <defs>
        <path id="g1i2iwtyxa" d="M0.2 0.2L0.3 0.2 0.3 0.4 0.2 0.4z"/>
        <path id="z28xova68c" d="M0.051 0.111L12.617 0.111 12.617 12.43 0.051 12.43z"/>
        <path id="29rt4tqghe" d="M0 0.009L22.53 0.009 22.53 21.999 0 21.999z"/>
    </defs>
    <g fill="none" fill-rule="evenodd">
        <g>
            <g>
                <g transform="translate(-156 -23) translate(156 23) translate(0 33.622)">
                    <mask id="nu117zjlzb" fill="#fff">
                        <use xlink:href="#g1i2iwtyxa"/>
                    </mask>
                </g>
                <path fill="#4AA48F" d="M37.267 11.52c-.021-.824-.084-1.643-.191-2.455-.197-1.486-.524-2.797-.877-3.897-2.314 1.523-5.226 3.988-6.811 7.453-.217.476-.387.922-.52 1.33.413.705.922 1.36 1.515 1.946l.43.425c1.433-1.835 3.493-3.58 6.454-4.802" transform="translate(-156 -23) translate(156 23)"/>
                <g transform="translate(-156 -23) translate(156 23) translate(35.383 .023)">
                    <mask id="xn0zcbkiid" fill="#fff">
                        <use xlink:href="#z28xova68c"/>
                    </mask>
                    <path fill="#4AA48F" d="M12.178 12.09c.056.114.11.227.162.34.785-3.25-.1-6.817-2.668-9.355-.189-.187-.385-.367-.589-.538-.201-.17-.41-.333-.624-.487-.212-.152-.43-.296-.653-.432-.221-.134-.448-.26-.679-.378-.23-.116-.463-.224-.7-.323-.237-.099-.477-.189-.72-.27-.243-.08-.488-.152-.735-.214s-.496-.116-.747-.16c-.25-.045-.503-.08-.756-.106-.252-.026-.506-.043-.76-.051s-.508-.007-.762.003-.507.03-.76.058C.934.205.683.243.433.289.305.313.178.34.05.368c.373.594 1.027 1.75 1.641 3.39 6.011 1.479 9.02 5.347 10.486 8.332" mask="url(#xn0zcbkiid)"/>
                </g>
                <path fill="#4AA48F" d="M37.26 12.89c-2.314 1.04-4.178 2.498-5.577 4.358 1.828 2.186 2.587 4.96 2.258 7.62 1.11-2.143 1.951-4.293 2.507-6.434.482-1.858.752-3.712.813-5.544M35.766 3.947c-.153-.394-.304-.747-.444-1.054-.52-1.138-.99-1.871-1.164-2.128-.182.066-.363.136-.54.212-.238.101-.471.212-.7.33-.23.12-.456.25-.676.386-.223.138-.44.285-.651.44-.214.157-.421.322-.622.495-.226.195-.442.404-.662.608-.056.052-.111.106-.166.16-.075.076-.15.153-.221.232-.09.1-.179.2-.264.304-.101.121-.199.245-.293.372-.107.144-.21.291-.307.44-.109.166-.212.336-.31.508-.105.187-.204.378-.295.572-.099.208-.189.42-.27.636-.087.23-.165.462-.231.698-.07.25-.13.503-.177.759-.05.27-.087.544-.11.818-.025.291-.035.584-.03.876.002.125.007.25.014.376.048.805.21 1.592.472 2.345l.064-.145c.983-2.182 3.097-5.37 7.583-8.24M38.538 13.096c-.073 1.852-.352 3.723-.835 5.596-.841 3.266-2.312 6.546-4.377 9.783l9.27-8.936c-.69-2.477-2.046-4.633-4.058-6.443M37.556 5.21c.32 1.065.599 2.277.781 3.623.118.866.187 1.739.21 2.618 2.775 2.197 4.283 4.732 5.07 7.102l1.348-1.298c.917-.884 1.625-1.9 2.127-2.988-.194-.53-.427-1.087-.707-1.653-1.843-3.727-4.81-6.214-8.83-7.404" transform="translate(-156 -23) translate(156 23)"/>
                <path fill="#FF8E69" d="M29.008 17.77l-5.145-5.022L10.285 26l5.145 5.022c3.734 3.645 9.844 3.645 13.578 0 3.734-3.644 3.734-9.608 0-13.252" transform="translate(-156 -23) translate(156 23)"/>
                <g transform="translate(-156 -23) translate(156 23) translate(.137 2.834)">
                    <mask id="ts83qj27vf" fill="#fff">
                        <use xlink:href="#29rt4tqghe"/>
                    </mask>
                    <path fill="#4AA48F" d="M6.987 17.066l-1.558-1.521c-1.377-1.343-2.232-3.01-2.567-4.755l5.277 5.151-1.152 1.125zm9.391-14.324C12.644-.903 6.534-.903 2.8 2.742c-3.734 3.644-3.734 9.608 0 13.252L8.952 22 22.53 8.747l-6.152-6.005z" mask="url(#ts83qj27vf)"/>
                </g>
            </g>
        </g>
    </g>
</svg>
