<svg xmlns="http://www.w3.org/2000/svg" width="24" height="24" viewBox="0 0 24 24">
    <g fill="none" fill-rule="evenodd">
        <path d="M0 0H24V24H0z"/>
        <g fill-rule="nonzero">
            <path fill="#078266" d="M21.629 20.106l-4.555-4.555c-.467-.465-1.22-.465-1.687 0-2.469 2.387-6.238 2.806-9.17 1.019-2.933-1.787-4.289-5.329-3.299-8.617.99-3.288 4.075-5.494 7.506-5.365 3.432.128 6.344 2.557 7.085 5.91.259 1.183.232 2.41-.077 3.58-.1.373.007.771.28 1.044.274.272.672.378 1.045.278.372-.1.663-.392.763-.765 1.227-4.614-1.077-9.437-5.438-11.381C9.72-.69 4.594.82 1.982 4.818c-2.61 3.998-1.932 9.3 1.6 12.511 3.534 3.212 8.876 3.384 12.607.405l3.913 3.908c.202.203.477.317.763.317.287 0 .562-.114.764-.317.206-.203.321-.48.321-.768 0-.288-.115-.565-.321-.768z" transform="translate(1 1)"/>
            <path fill="#FF8E69" d="M13.373 13.373c-.355-.33-.887-.378-1.295-.117-1.139.703-2.57.731-3.735.073-.399-.232-.903-.174-1.238.143l-.065.06c-.235.224-.352.544-.316.867.035.322.22.61.497.777 1.88 1.083 4.205 1.037 6.04-.121.266-.17.44-.45.475-.764.035-.314-.075-.626-.299-.85l-.064-.068z" transform="translate(1 1)"/>
        </g>
    </g>
</svg>
