<svg xmlns="http://www.w3.org/2000/svg" width="32" height="32" viewBox="0 0 32 32">
    <g fill="none" fill-rule="evenodd">
        <circle cx="16" cy="16" r="16" fill="#FFF"/>
        <path fill="#078266" d="M23.965 12.575c0-.178 0-.354-.013-.53.804-.58 1.497-1.3 2.048-2.124-.749.332-1.544.55-2.357.645.856-.512 1.498-1.319 1.804-2.269-.805.477-1.687.814-2.606.996-1.554-1.652-4.154-1.732-5.806-.179-1.065 1.003-1.517 2.496-1.186 3.921-3.3-.165-6.373-1.723-8.457-4.287-1.089 1.875-.534 4.274 1.27 5.478-.653-.02-1.292-.196-1.862-.514v.052c0 1.954 1.377 3.635 3.292 4.022-.605.165-1.239.19-1.853.07.537 1.672 2.078 2.818 3.833 2.85-1.453 1.143-3.248 1.763-5.095 1.761-.327 0-.653-.02-.977-.06 1.876 1.204 4.06 1.843 6.289 1.84 7.548.004 11.676-6.249 11.676-11.672z"/>
    </g>
</svg>
