<svg xmlns="http://www.w3.org/2000/svg" width="24" height="24" viewBox="0 0 24 24">
    <g fill="none" fill-rule="evenodd">
        <path d="M0 0H24V24H0z"/>
        <g fill-rule="nonzero" transform="translate(1 1)">
            <path fill="#078266" d="M21.934 18.533l-.6-2.671c-.314-1.42-1.238-2.657-2.553-3.419L15.18 10.35c.56-.701.907-1.531 1.007-2.403l.286-2.53c.156-1.38-.318-2.759-1.306-3.792C14.177.591 12.769.001 11.29 0h-.576C9.235 0 7.825.59 6.836 1.623c-.99 1.033-1.464 2.412-1.308 3.793l.29 2.53c.1.872.449 1.702 1.008 2.403l-3.607 2.094C1.904 13.205.98 14.441.666 15.862l-.6 2.67c-.19.848.036 1.732.617 2.404C1.264 21.61 2.137 22 3.06 22h15.88c.923 0 1.796-.39 2.377-1.064.58-.672.808-1.556.617-2.403zM8.578 3.08c.545-.567 1.323-.887 2.136-.88h.576c.815 0 1.592.324 2.136.893.544.57.805 1.33.717 2.09l-.285 2.526c-.157 1.37-1.388 2.41-2.856 2.41-1.467 0-2.698-1.04-2.855-2.41l-.286-2.526c-.1-.766.162-1.534.717-2.103zm10.92 16.456c-.134.161-.34.254-.558.25H3.06c-.218.004-.424-.089-.558-.25-.138-.152-.196-.354-.16-.55l.6-2.67c.192-.832.737-1.553 1.509-1.998l4.277-2.49c1.434.656 3.11.656 4.544 0l4.277 2.49c.766.447 1.306 1.168 1.494 1.997l.6 2.671c.045.199-.008.406-.145.563v-.013z"/>
            <rect width="5" height="2" x="12" y="16" fill="#FF8E69" rx="1"/>
        </g>
    </g>
</svg>
