<svg xmlns="http://www.w3.org/2000/svg" width="32" height="32" viewBox="0 0 32 32">
    <g fill="none" fill-rule="evenodd">
        <circle cx="16" cy="16" r="16" fill="#FFF"/>
        <path fill="#078266" fill-rule="nonzero" d="M15.997 6c-3.756.001-7.194 2.107-8.903 5.452-1.708 3.345-1.398 7.365.803 10.408l-1.24 3.71 3.84-1.22c3.57 2.353 8.243 2.175 11.624-.443 3.382-2.618 4.724-7.097 3.34-11.143C24.077 8.717 20.273 5.999 15.997 6zm5.82 14.12c-.416.75-1.153 1.27-2 1.41-.52.11-1.21.2-3.5-.75-2.55-1.07-6.13-4.88-6.13-7.41 0-1.29.74-2.79 2.05-2.79.62 0 .76 0 1 .5s.82 2 .89 2.16c.29.61-.29 1-.71 1.48-.2.146-.252.421-.12.63.44.741.986 1.415 1.62 2 .684.628 1.482 1.12 2.35 1.45.233.113.513.07.7-.11.28-.316.541-.65.78-1 .15-.244.462-.335.72-.21.872.355 1.718.773 2.53 1.25.074.471.011.953-.18 1.39z"/>
    </g>
</svg>
